<mxfile host="app.diagrams.net" agent="Mozilla/5.0 (Windows NT 10.0; Win64; x64) AppleWebKit/537.36 (KHTML, like Gecko) Chrome/131.0.0.0 Safari/537.36 Edg/131.0.0.0" version="25.0.3">
  <diagram name="Page-1" id="mBXZbjz779aYxBfMj05S">
    <mxGraphModel dx="3827" dy="2714" grid="1" gridSize="10" guides="1" tooltips="1" connect="1" arrows="1" fold="1" page="1" pageScale="1" pageWidth="850" pageHeight="1100" math="0" shadow="0">
      <root>
        <mxCell id="0" />
        <mxCell id="1" parent="0" />
        <mxCell id="9Kg9-wG0B773OV2p_4Ai-1" value="" style="edgeStyle=orthogonalEdgeStyle;rounded=0;orthogonalLoop=1;jettySize=auto;html=1;" edge="1" parent="1" source="9Kg9-wG0B773OV2p_4Ai-2" target="9Kg9-wG0B773OV2p_4Ai-4">
          <mxGeometry relative="1" as="geometry" />
        </mxCell>
        <mxCell id="9Kg9-wG0B773OV2p_4Ai-2" value="Start stuck User" style="shape=process;whiteSpace=wrap;html=1;backgroundOutline=1;" vertex="1" parent="1">
          <mxGeometry x="-369.86" y="-960" width="120" height="50" as="geometry" />
        </mxCell>
        <mxCell id="9Kg9-wG0B773OV2p_4Ai-3" value="" style="edgeStyle=orthogonalEdgeStyle;rounded=0;orthogonalLoop=1;jettySize=auto;html=1;" edge="1" parent="1" source="9Kg9-wG0B773OV2p_4Ai-4" target="9Kg9-wG0B773OV2p_4Ai-6">
          <mxGeometry relative="1" as="geometry" />
        </mxCell>
        <mxCell id="9Kg9-wG0B773OV2p_4Ai-4" value="กำหนดค่า Name" style="rounded=0;whiteSpace=wrap;html=1;" vertex="1" parent="1">
          <mxGeometry x="-369.86" y="-870" width="120" height="40" as="geometry" />
        </mxCell>
        <mxCell id="9Kg9-wG0B773OV2p_4Ai-5" value="" style="edgeStyle=orthogonalEdgeStyle;rounded=0;orthogonalLoop=1;jettySize=auto;html=1;" edge="1" parent="1" source="9Kg9-wG0B773OV2p_4Ai-6">
          <mxGeometry relative="1" as="geometry">
            <mxPoint x="-309.86" y="-707.5" as="targetPoint" />
          </mxGeometry>
        </mxCell>
        <mxCell id="9Kg9-wG0B773OV2p_4Ai-6" value="กำหนดค่า Sarary" style="rounded=0;whiteSpace=wrap;html=1;" vertex="1" parent="1">
          <mxGeometry x="-369.86" y="-790" width="120" height="40" as="geometry" />
        </mxCell>
        <mxCell id="9Kg9-wG0B773OV2p_4Ai-7" value="End stuck User" style="shape=process;whiteSpace=wrap;html=1;backgroundOutline=1;" vertex="1" parent="1">
          <mxGeometry x="-369.86" y="-705" width="120" height="50" as="geometry" />
        </mxCell>
        <mxCell id="9Kg9-wG0B773OV2p_4Ai-8" value="" style="edgeStyle=orthogonalEdgeStyle;rounded=0;orthogonalLoop=1;jettySize=auto;html=1;" edge="1" parent="1" source="9Kg9-wG0B773OV2p_4Ai-9">
          <mxGeometry relative="1" as="geometry">
            <mxPoint x="-584.86" y="-865" as="targetPoint" />
          </mxGeometry>
        </mxCell>
        <mxCell id="9Kg9-wG0B773OV2p_4Ai-9" value="&lt;font data-font-src=&quot;https://fonts.googleapis.com/css?family=Sarabun&quot; face=&quot;Sarabun&quot;&gt;Start&lt;/font&gt;" style="ellipse;whiteSpace=wrap;html=1;" vertex="1" parent="1">
          <mxGeometry x="-649.8600000000001" y="-925" width="130" height="30" as="geometry" />
        </mxCell>
        <mxCell id="9Kg9-wG0B773OV2p_4Ai-10" value="stuck User" style="shape=process;whiteSpace=wrap;html=1;backgroundOutline=1;" vertex="1" parent="1">
          <mxGeometry x="-644.86" y="-312.5" width="120" height="50" as="geometry" />
        </mxCell>
        <mxCell id="9Kg9-wG0B773OV2p_4Ai-11" value="" style="edgeStyle=orthogonalEdgeStyle;rounded=0;orthogonalLoop=1;jettySize=auto;html=1;" edge="1" parent="1" source="9Kg9-wG0B773OV2p_4Ai-12">
          <mxGeometry relative="1" as="geometry">
            <mxPoint x="-139.8533333333335" y="-864.9987499687495" as="targetPoint" />
          </mxGeometry>
        </mxCell>
        <mxCell id="9Kg9-wG0B773OV2p_4Ai-12" value="Start sort" style="shape=process;whiteSpace=wrap;html=1;backgroundOutline=1;" vertex="1" parent="1">
          <mxGeometry x="-199.86" y="-960" width="120" height="50" as="geometry" />
        </mxCell>
        <mxCell id="9Kg9-wG0B773OV2p_4Ai-13" value="" style="edgeStyle=orthogonalEdgeStyle;rounded=0;orthogonalLoop=1;jettySize=auto;html=1;" edge="1" parent="1">
          <mxGeometry relative="1" as="geometry">
            <mxPoint x="-584.86" y="-347.5" as="sourcePoint" />
            <mxPoint x="-584.86" y="-312.5" as="targetPoint" />
          </mxGeometry>
        </mxCell>
        <mxCell id="9Kg9-wG0B773OV2p_4Ai-14" value="" style="edgeStyle=orthogonalEdgeStyle;rounded=0;orthogonalLoop=1;jettySize=auto;html=1;" edge="1" parent="1" source="9Kg9-wG0B773OV2p_4Ai-15" target="9Kg9-wG0B773OV2p_4Ai-16">
          <mxGeometry relative="1" as="geometry" />
        </mxCell>
        <mxCell id="9Kg9-wG0B773OV2p_4Ai-15" value="กำหนดตัวแปร Most tax" style="rounded=0;whiteSpace=wrap;html=1;" vertex="1" parent="1">
          <mxGeometry x="-649.86" y="-495" width="130" height="50" as="geometry" />
        </mxCell>
        <mxCell id="9Kg9-wG0B773OV2p_4Ai-16" value="กำหนดตัวแปร arr count" style="rounded=0;whiteSpace=wrap;html=1;" vertex="1" parent="1">
          <mxGeometry x="-649.86" y="-400" width="130" height="50" as="geometry" />
        </mxCell>
        <mxCell id="9Kg9-wG0B773OV2p_4Ai-17" value="" style="edgeStyle=orthogonalEdgeStyle;rounded=0;orthogonalLoop=1;jettySize=auto;html=1;" edge="1" parent="1" source="9Kg9-wG0B773OV2p_4Ai-18" target="9Kg9-wG0B773OV2p_4Ai-15">
          <mxGeometry relative="1" as="geometry" />
        </mxCell>
        <mxCell id="9Kg9-wG0B773OV2p_4Ai-18" value="กำหนดตัวแปร Tax" style="rounded=0;whiteSpace=wrap;html=1;" vertex="1" parent="1">
          <mxGeometry x="-649.86" y="-590" width="130" height="50" as="geometry" />
        </mxCell>
        <mxCell id="9Kg9-wG0B773OV2p_4Ai-19" value="กำหนดตัวแปร sum year" style="rounded=0;whiteSpace=wrap;html=1;" vertex="1" parent="1">
          <mxGeometry x="-649.86" y="-685" width="130" height="50" as="geometry" />
        </mxCell>
        <mxCell id="9Kg9-wG0B773OV2p_4Ai-20" value="" style="edgeStyle=orthogonalEdgeStyle;rounded=0;orthogonalLoop=1;jettySize=auto;html=1;" edge="1" parent="1" source="9Kg9-wG0B773OV2p_4Ai-21" target="9Kg9-wG0B773OV2p_4Ai-19">
          <mxGeometry relative="1" as="geometry" />
        </mxCell>
        <mxCell id="9Kg9-wG0B773OV2p_4Ai-21" value="กำหนดตัวแปร sum month" style="rounded=0;whiteSpace=wrap;html=1;" vertex="1" parent="1">
          <mxGeometry x="-669.86" y="-780" width="170" height="50" as="geometry" />
        </mxCell>
        <mxCell id="9Kg9-wG0B773OV2p_4Ai-22" value="" style="edgeStyle=orthogonalEdgeStyle;rounded=0;orthogonalLoop=1;jettySize=auto;html=1;" edge="1" parent="1" source="9Kg9-wG0B773OV2p_4Ai-19">
          <mxGeometry relative="1" as="geometry">
            <mxPoint x="-584.86" y="-589.75" as="targetPoint" />
          </mxGeometry>
        </mxCell>
        <mxCell id="9Kg9-wG0B773OV2p_4Ai-23" value="กำหนดตัวแปร&amp;nbsp;&lt;div&gt;sum mont += Sarary&lt;/div&gt;" style="rounded=0;whiteSpace=wrap;html=1;" vertex="1" parent="1">
          <mxGeometry x="-648.86" y="160" width="130" height="50" as="geometry" />
        </mxCell>
        <mxCell id="9Kg9-wG0B773OV2p_4Ai-24" value="" style="edgeStyle=orthogonalEdgeStyle;rounded=0;orthogonalLoop=1;jettySize=auto;html=1;" edge="1" parent="1" source="9Kg9-wG0B773OV2p_4Ai-25" target="9Kg9-wG0B773OV2p_4Ai-47">
          <mxGeometry relative="1" as="geometry" />
        </mxCell>
        <mxCell id="9Kg9-wG0B773OV2p_4Ai-25" value="แปลงเป็น&amp;nbsp;Decimal Number&amp;nbsp;" style="rounded=0;whiteSpace=wrap;html=1;" vertex="1" parent="1">
          <mxGeometry x="-199.86" y="-860" width="120" height="40" as="geometry" />
        </mxCell>
        <mxCell id="9Kg9-wG0B773OV2p_4Ai-26" value="End sort" style="shape=process;whiteSpace=wrap;html=1;backgroundOutline=1;" vertex="1" parent="1">
          <mxGeometry x="-199.86" y="-705" width="120" height="50" as="geometry" />
        </mxCell>
        <mxCell id="9Kg9-wG0B773OV2p_4Ai-27" value="" style="edgeStyle=orthogonalEdgeStyle;rounded=0;orthogonalLoop=1;jettySize=auto;html=1;" edge="1" parent="1" source="9Kg9-wG0B773OV2p_4Ai-28" target="9Kg9-wG0B773OV2p_4Ai-43">
          <mxGeometry relative="1" as="geometry" />
        </mxCell>
        <mxCell id="9Kg9-wG0B773OV2p_4Ai-28" value="Start cal" style="shape=process;whiteSpace=wrap;html=1;backgroundOutline=1;" vertex="1" parent="1">
          <mxGeometry x="15.139999999999986" y="-960" width="120" height="50" as="geometry" />
        </mxCell>
        <mxCell id="9Kg9-wG0B773OV2p_4Ai-29" value="" style="edgeStyle=orthogonalEdgeStyle;rounded=0;orthogonalLoop=1;jettySize=auto;html=1;" edge="1" parent="1" target="9Kg9-wG0B773OV2p_4Ai-35">
          <mxGeometry relative="1" as="geometry">
            <mxPoint x="-584.86" y="-262" as="sourcePoint" />
          </mxGeometry>
        </mxCell>
        <mxCell id="9Kg9-wG0B773OV2p_4Ai-30" value="" style="edgeStyle=orthogonalEdgeStyle;rounded=0;orthogonalLoop=1;jettySize=auto;html=1;" edge="1" parent="1" source="9Kg9-wG0B773OV2p_4Ai-31" target="9Kg9-wG0B773OV2p_4Ai-33">
          <mxGeometry relative="1" as="geometry" />
        </mxCell>
        <mxCell id="9Kg9-wG0B773OV2p_4Ai-31" value="&amp;nbsp;stuck User รับค่า name" style="shape=parallelogram;perimeter=parallelogramPerimeter;whiteSpace=wrap;html=1;fixedSize=1;" vertex="1" parent="1">
          <mxGeometry x="-702.36" y="-187.5" width="235" height="40" as="geometry" />
        </mxCell>
        <mxCell id="9Kg9-wG0B773OV2p_4Ai-32" value="" style="edgeStyle=orthogonalEdgeStyle;rounded=0;orthogonalLoop=1;jettySize=auto;html=1;" edge="1" parent="1" source="9Kg9-wG0B773OV2p_4Ai-33">
          <mxGeometry relative="1" as="geometry">
            <mxPoint x="-584.86" y="-23.749999999999773" as="targetPoint" />
          </mxGeometry>
        </mxCell>
        <mxCell id="9Kg9-wG0B773OV2p_4Ai-33" value="&amp;nbsp;stuck User รับค่า Sarary" style="shape=parallelogram;perimeter=parallelogramPerimeter;whiteSpace=wrap;html=1;fixedSize=1;" vertex="1" parent="1">
          <mxGeometry x="-702.36" y="-97.5" width="235" height="40" as="geometry" />
        </mxCell>
        <mxCell id="9Kg9-wG0B773OV2p_4Ai-34" value="" style="edgeStyle=orthogonalEdgeStyle;rounded=0;orthogonalLoop=1;jettySize=auto;html=1;" edge="1" parent="1" source="9Kg9-wG0B773OV2p_4Ai-35" target="9Kg9-wG0B773OV2p_4Ai-31">
          <mxGeometry relative="1" as="geometry" />
        </mxCell>
        <mxCell id="9Kg9-wG0B773OV2p_4Ai-35" value="" style="ellipse;whiteSpace=wrap;html=1;aspect=fixed;" vertex="1" parent="1">
          <mxGeometry x="-594.86" y="-237.5" width="20" height="20" as="geometry" />
        </mxCell>
        <mxCell id="9Kg9-wG0B773OV2p_4Ai-36" value="" style="edgeStyle=orthogonalEdgeStyle;rounded=0;orthogonalLoop=1;jettySize=auto;html=1;" edge="1" parent="1" source="9Kg9-wG0B773OV2p_4Ai-38" target="9Kg9-wG0B773OV2p_4Ai-41">
          <mxGeometry relative="1" as="geometry" />
        </mxCell>
        <mxCell id="9Kg9-wG0B773OV2p_4Ai-37" style="edgeStyle=orthogonalEdgeStyle;rounded=0;orthogonalLoop=1;jettySize=auto;html=1;entryX=0;entryY=0.5;entryDx=0;entryDy=0;" edge="1" parent="1" source="9Kg9-wG0B773OV2p_4Ai-38" target="9Kg9-wG0B773OV2p_4Ai-35">
          <mxGeometry relative="1" as="geometry">
            <Array as="points">
              <mxPoint x="-749.86" y="270" />
              <mxPoint x="-749.86" y="-227" />
            </Array>
          </mxGeometry>
        </mxCell>
        <mxCell id="9Kg9-wG0B773OV2p_4Ai-38" value="กรอก -1 หรือไม่" style="rhombus;whiteSpace=wrap;html=1;" vertex="1" parent="1">
          <mxGeometry x="-639.86" y="235.25" width="112" height="70" as="geometry" />
        </mxCell>
        <mxCell id="9Kg9-wG0B773OV2p_4Ai-39" value="" style="edgeStyle=orthogonalEdgeStyle;rounded=0;orthogonalLoop=1;jettySize=auto;html=1;" edge="1" parent="1" target="9Kg9-wG0B773OV2p_4Ai-38">
          <mxGeometry relative="1" as="geometry">
            <mxPoint x="-583.86" y="210.25000000000023" as="sourcePoint" />
          </mxGeometry>
        </mxCell>
        <mxCell id="9Kg9-wG0B773OV2p_4Ai-40" value="" style="edgeStyle=orthogonalEdgeStyle;rounded=0;orthogonalLoop=1;jettySize=auto;html=1;" edge="1" parent="1" source="9Kg9-wG0B773OV2p_4Ai-41" target="9Kg9-wG0B773OV2p_4Ai-70">
          <mxGeometry relative="1" as="geometry" />
        </mxCell>
        <mxCell id="9Kg9-wG0B773OV2p_4Ai-41" value="cal" style="shape=process;whiteSpace=wrap;html=1;backgroundOutline=1;" vertex="1" parent="1">
          <mxGeometry x="-643.86" y="344" width="120" height="50" as="geometry" />
        </mxCell>
        <mxCell id="9Kg9-wG0B773OV2p_4Ai-42" value="" style="edgeStyle=orthogonalEdgeStyle;rounded=0;orthogonalLoop=1;jettySize=auto;html=1;" edge="1" parent="1" source="9Kg9-wG0B773OV2p_4Ai-43" target="9Kg9-wG0B773OV2p_4Ai-45">
          <mxGeometry relative="1" as="geometry" />
        </mxCell>
        <mxCell id="9Kg9-wG0B773OV2p_4Ai-43" value="sum year *= 12" style="rounded=0;whiteSpace=wrap;html=1;" vertex="1" parent="1">
          <mxGeometry x="5.139999999999986" y="-880" width="140" height="40" as="geometry" />
        </mxCell>
        <mxCell id="9Kg9-wG0B773OV2p_4Ai-44" value="" style="edgeStyle=orthogonalEdgeStyle;rounded=0;orthogonalLoop=1;jettySize=auto;html=1;" edge="1" parent="1" source="9Kg9-wG0B773OV2p_4Ai-45" target="9Kg9-wG0B773OV2p_4Ai-49">
          <mxGeometry relative="1" as="geometry" />
        </mxCell>
        <mxCell id="9Kg9-wG0B773OV2p_4Ai-45" value="sort" style="shape=process;whiteSpace=wrap;html=1;backgroundOutline=1;" vertex="1" parent="1">
          <mxGeometry x="15.139999999999986" y="-810" width="120" height="50" as="geometry" />
        </mxCell>
        <mxCell id="9Kg9-wG0B773OV2p_4Ai-46" value="" style="edgeStyle=orthogonalEdgeStyle;rounded=0;orthogonalLoop=1;jettySize=auto;html=1;" edge="1" parent="1" source="9Kg9-wG0B773OV2p_4Ai-47" target="9Kg9-wG0B773OV2p_4Ai-26">
          <mxGeometry relative="1" as="geometry" />
        </mxCell>
        <mxCell id="9Kg9-wG0B773OV2p_4Ai-47" value="ปริ้นที่แปลงออกมา" style="shape=parallelogram;perimeter=parallelogramPerimeter;whiteSpace=wrap;html=1;fixedSize=1;" vertex="1" parent="1">
          <mxGeometry x="-212.36" y="-780" width="145" height="40" as="geometry" />
        </mxCell>
        <mxCell id="9Kg9-wG0B773OV2p_4Ai-48" value="" style="edgeStyle=orthogonalEdgeStyle;rounded=0;orthogonalLoop=1;jettySize=auto;html=1;" edge="1" parent="1" source="9Kg9-wG0B773OV2p_4Ai-49" target="9Kg9-wG0B773OV2p_4Ai-51">
          <mxGeometry relative="1" as="geometry" />
        </mxCell>
        <mxCell id="9Kg9-wG0B773OV2p_4Ai-49" value="Tax = sumyear * 0.07" style="rounded=0;whiteSpace=wrap;html=1;" vertex="1" parent="1">
          <mxGeometry x="-9.860000000000014" y="-730" width="170" height="40" as="geometry" />
        </mxCell>
        <mxCell id="9Kg9-wG0B773OV2p_4Ai-50" value="" style="edgeStyle=orthogonalEdgeStyle;rounded=0;orthogonalLoop=1;jettySize=auto;html=1;" edge="1" parent="1" source="9Kg9-wG0B773OV2p_4Ai-51" target="9Kg9-wG0B773OV2p_4Ai-66">
          <mxGeometry relative="1" as="geometry" />
        </mxCell>
        <mxCell id="9Kg9-wG0B773OV2p_4Ai-51" value="sort" style="shape=process;whiteSpace=wrap;html=1;backgroundOutline=1;" vertex="1" parent="1">
          <mxGeometry x="15.139999999999986" y="-660" width="120" height="50" as="geometry" />
        </mxCell>
        <mxCell id="9Kg9-wG0B773OV2p_4Ai-52" value="" style="edgeStyle=orthogonalEdgeStyle;rounded=0;orthogonalLoop=1;jettySize=auto;html=1;" edge="1" parent="1" source="9Kg9-wG0B773OV2p_4Ai-53" target="9Kg9-wG0B773OV2p_4Ai-21">
          <mxGeometry relative="1" as="geometry" />
        </mxCell>
        <mxCell id="9Kg9-wG0B773OV2p_4Ai-53" value="กำหนดตัวแปร most salary" style="rounded=0;whiteSpace=wrap;html=1;" vertex="1" parent="1">
          <mxGeometry x="-669.86" y="-865" width="170" height="50" as="geometry" />
        </mxCell>
        <mxCell id="9Kg9-wG0B773OV2p_4Ai-54" style="edgeStyle=orthogonalEdgeStyle;rounded=0;orthogonalLoop=1;jettySize=auto;html=1;entryX=1;entryY=0.5;entryDx=0;entryDy=0;" edge="1" parent="1" source="9Kg9-wG0B773OV2p_4Ai-55" target="9Kg9-wG0B773OV2p_4Ai-60">
          <mxGeometry relative="1" as="geometry">
            <Array as="points">
              <mxPoint x="-409.86" y="110" />
            </Array>
          </mxGeometry>
        </mxCell>
        <mxCell id="9Kg9-wG0B773OV2p_4Ai-55" value="เก็บค่าไว่ใน&amp;nbsp; most salary" style="rounded=0;whiteSpace=wrap;html=1;" vertex="1" parent="1">
          <mxGeometry x="-479.86" y="-8" width="130" height="50" as="geometry" />
        </mxCell>
        <mxCell id="9Kg9-wG0B773OV2p_4Ai-56" value="" style="edgeStyle=orthogonalEdgeStyle;rounded=0;orthogonalLoop=1;jettySize=auto;html=1;" edge="1" parent="1" source="9Kg9-wG0B773OV2p_4Ai-58" target="9Kg9-wG0B773OV2p_4Ai-55">
          <mxGeometry relative="1" as="geometry" />
        </mxCell>
        <mxCell id="9Kg9-wG0B773OV2p_4Ai-57" value="" style="edgeStyle=orthogonalEdgeStyle;rounded=0;orthogonalLoop=1;jettySize=auto;html=1;" edge="1" parent="1" source="9Kg9-wG0B773OV2p_4Ai-58" target="9Kg9-wG0B773OV2p_4Ai-60">
          <mxGeometry relative="1" as="geometry" />
        </mxCell>
        <mxCell id="9Kg9-wG0B773OV2p_4Ai-58" value="salary มากที่สุดหริอไม่" style="rhombus;whiteSpace=wrap;html=1;" vertex="1" parent="1">
          <mxGeometry x="-647.86" y="-23" width="128" height="80" as="geometry" />
        </mxCell>
        <mxCell id="9Kg9-wG0B773OV2p_4Ai-59" style="edgeStyle=orthogonalEdgeStyle;rounded=0;orthogonalLoop=1;jettySize=auto;html=1;entryX=0.5;entryY=0;entryDx=0;entryDy=0;" edge="1" parent="1" source="9Kg9-wG0B773OV2p_4Ai-60" target="9Kg9-wG0B773OV2p_4Ai-23">
          <mxGeometry relative="1" as="geometry" />
        </mxCell>
        <mxCell id="9Kg9-wG0B773OV2p_4Ai-60" value="" style="ellipse;whiteSpace=wrap;html=1;aspect=fixed;" vertex="1" parent="1">
          <mxGeometry x="-593.86" y="100" width="20" height="20" as="geometry" />
        </mxCell>
        <mxCell id="9Kg9-wG0B773OV2p_4Ai-61" value="T" style="text;html=1;align=center;verticalAlign=middle;resizable=0;points=[];autosize=1;strokeColor=none;fillColor=none;" vertex="1" parent="1">
          <mxGeometry x="-579.86" y="300" width="30" height="30" as="geometry" />
        </mxCell>
        <mxCell id="9Kg9-wG0B773OV2p_4Ai-62" value="F" style="text;html=1;align=center;verticalAlign=middle;resizable=0;points=[];autosize=1;strokeColor=none;fillColor=none;" vertex="1" parent="1">
          <mxGeometry x="-669.86" y="235.25" width="30" height="30" as="geometry" />
        </mxCell>
        <mxCell id="9Kg9-wG0B773OV2p_4Ai-63" value="T" style="text;html=1;align=center;verticalAlign=middle;resizable=0;points=[];autosize=1;strokeColor=none;fillColor=none;" vertex="1" parent="1">
          <mxGeometry x="-527.86" y="-8" width="30" height="30" as="geometry" />
        </mxCell>
        <mxCell id="9Kg9-wG0B773OV2p_4Ai-64" value="F" style="text;html=1;align=center;verticalAlign=middle;resizable=0;points=[];autosize=1;strokeColor=none;fillColor=none;" vertex="1" parent="1">
          <mxGeometry x="-579.86" y="57" width="30" height="30" as="geometry" />
        </mxCell>
        <mxCell id="9Kg9-wG0B773OV2p_4Ai-65" value="" style="edgeStyle=orthogonalEdgeStyle;rounded=0;orthogonalLoop=1;jettySize=auto;html=1;" edge="1" parent="1" source="9Kg9-wG0B773OV2p_4Ai-66" target="9Kg9-wG0B773OV2p_4Ai-68">
          <mxGeometry relative="1" as="geometry" />
        </mxCell>
        <mxCell id="9Kg9-wG0B773OV2p_4Ai-66" value="Most tax = most salary * 12 * 0.07" style="rounded=0;whiteSpace=wrap;html=1;" vertex="1" parent="1">
          <mxGeometry x="-34.860000000000014" y="-580" width="220" height="40" as="geometry" />
        </mxCell>
        <mxCell id="9Kg9-wG0B773OV2p_4Ai-67" value="" style="edgeStyle=orthogonalEdgeStyle;rounded=0;orthogonalLoop=1;jettySize=auto;html=1;" edge="1" parent="1" source="9Kg9-wG0B773OV2p_4Ai-68" target="9Kg9-wG0B773OV2p_4Ai-69">
          <mxGeometry relative="1" as="geometry" />
        </mxCell>
        <mxCell id="9Kg9-wG0B773OV2p_4Ai-68" value="sort" style="shape=process;whiteSpace=wrap;html=1;backgroundOutline=1;" vertex="1" parent="1">
          <mxGeometry x="15.139999999999986" y="-510" width="120" height="50" as="geometry" />
        </mxCell>
        <mxCell id="9Kg9-wG0B773OV2p_4Ai-69" value="End cal" style="shape=process;whiteSpace=wrap;html=1;backgroundOutline=1;" vertex="1" parent="1">
          <mxGeometry x="15.139999999999986" y="-420" width="120" height="50" as="geometry" />
        </mxCell>
        <mxCell id="9Kg9-wG0B773OV2p_4Ai-70" value="&lt;font data-font-src=&quot;https://fonts.googleapis.com/css?family=Sarabun&quot; face=&quot;Sarabun&quot;&gt;End&lt;/font&gt;" style="ellipse;whiteSpace=wrap;html=1;" vertex="1" parent="1">
          <mxGeometry x="-648.8600000000001" y="440" width="130" height="30" as="geometry" />
        </mxCell>
      </root>
    </mxGraphModel>
  </diagram>
</mxfile>
